<svg xmlns="http://www.w3.org/2000/svg" viewBox="-621.195 2454 318.195 63.27"><path d="M45.922,47.246a10.374,10.374,0,0,1-8.142,3.279,10.33,10.33,0,0,1-7.686-3.04c-2.866-2.866-2.909-6.1-2.909-11.616s.043-8.728,2.909-11.616a10.413,10.413,0,0,1,7.686-3.04c6.709,0,10.075,4.364,10.834,9.228H42.947c-.651-2.757-2.3-4.212-5.168-4.212a4.728,4.728,0,0,0-3.6,1.542c-1.042,1.216-1.368,2.584-1.368,8.1s.326,6.926,1.368,8.142a4.7,4.7,0,0,0,3.6,1.5,5.122,5.122,0,0,0,4-1.628,5.516,5.516,0,0,0,1.3-3.843V39h-5.3V34.262H48.658v4.212C48.658,42.643,48.028,45.053,45.922,47.246ZM54,50.286V21.474H72.975v5.016H59.622v6.753H71v5.016H59.622v6.991H72.975v5.016H54Zm41.1,0L83.7,32.612V50.286H78.078V21.474h5.016l11.4,17.63V21.474h5.624V50.286Zm21,.239a10.361,10.361,0,0,1-7.73-3.04c-2.866-2.866-2.909-6.1-2.909-11.616s.043-8.728,2.909-11.616a10.445,10.445,0,0,1,7.73-3.04c5.385,0,9.51,3.083,10.552,9.1h-5.754c-.565-2.345-2.019-4.082-4.82-4.082a4.633,4.633,0,0,0-3.6,1.5c-1.042,1.216-1.411,2.627-1.411,8.142s.369,6.926,1.411,8.142a4.633,4.633,0,0,0,3.6,1.5c2.8,0,4.3-1.737,4.864-4.082h5.71C125.606,47.442,121.437,50.525,116.1,50.525Zm25.6-12.05V50.286h-5.58V38.474l-8.663-17h6.1l5.385,11.616,5.3-11.616h6.1Zm32.2,11.812V33.5L168.4,44.424h-3.8L159.065,33.5V50.286h-5.624V21.474h5.537l7.534,15.568L174,21.474h5.537V50.286Zm19.867.239c-4.364,0-7.686-.934-10.509-3.8l3.648-3.648a9.379,9.379,0,0,0,6.926,2.432c3.365,0,5.146-1.3,5.146-3.6a3.227,3.227,0,0,0-.89-2.388,4.2,4.2,0,0,0-2.584-.977l-3.431-.521a9.5,9.5,0,0,1-5.58-2.388,7.563,7.563,0,0,1-2.063-5.667c0-5.146,3.8-8.728,10.031-8.728,3.973,0,6.839.977,9.315,3.365l-3.561,3.517a7.954,7.954,0,0,0-5.906-1.976c-3,0-4.408,1.65-4.408,3.648a2.682,2.682,0,0,0,.8,2.063,4.613,4.613,0,0,0,2.627,1.086l3.431.521c2.627.369,4.256,1.042,5.493,2.258,1.542,1.411,2.215,3.474,2.215,6.058C204.444,47.376,199.819,50.525,193.762,50.525Zm15.568-.239V21.474h5.623V50.286Zm-183.926,0L14.895,21.474H10.487L0,50.286H5.862l2.432-7.122,11.247,7.122ZM9.792,38.843l3.04-8.88,4.516,13.679Zm213.607,4.1v7.339H222.27V42.947h-2.323V41.9h5.775v1.042Zm10.031,7.339V44.25l-2,3.952h-1.107l-2-3.952v6.036H227.2V41.9h1.129l2.54,5.081,2.54-5.081h1.107v8.381ZM275.965,57.6c.717-1.216,7.339-12.68,13.744-23.775,6.687-11.594,13.006-22.537,13.2-22.863a3.189,3.189,0,0,1,2.627-1.411,3.127,3.127,0,0,1,3.127,3.127V53.087h-1.042L295.484,35.63l-5.3,9.271,12.528,18.086H318.2V12.68a12.686,12.686,0,0,0-23.254-7.013c-.717,1.216-7.339,12.68-13.744,23.775C274.51,41.036,268.192,51.98,268,52.305a3.189,3.189,0,0,1-2.627,1.411,3.127,3.127,0,0,1-3.127-3.127V10.2h1.042l12.137,17.457,5.3-9.271L268.192.3H252.711V50.59A12.686,12.686,0,0,0,275.965,57.6Z" transform="translate(-621.195 2454)"/></svg>