<svg xmlns="http://www.w3.org/2000/svg" viewBox="-1469 2481 284 37.056"><path d="M33.957.686V37.043H26.411V6.517L18.865,36.7H13.377L6.517,6.517V36.7H0V.686H11.662l5.145,22.295L22.638.686H33.957ZM71.686,18.522C71.686,6.174,67.227,0,58.652,0S45.618,6.517,45.618,18.522c0,12.348,4.459,18.522,13.034,18.522,8.575.343,13.034-6.174,13.034-18.522m-17.836,0c0-8.918,1.029-12.348,4.8-12.348,3.43,0,4.8,3.087,4.8,12.348,0,8.918-1.372,12-4.8,12-3.43.343-4.8-2.744-4.8-12M79.918.686v6.86h7.2v29.5H95.01V7.2h7.546V.343H79.918Zm39.1,0H111.13V37.043h7.889Zm38.072,17.836c0-12-4.459-18.522-13.034-18.522s-13.034,6.517-13.034,18.522c0,12.348,4.459,18.522,13.034,18.522,8.575.343,13.034-6.174,13.034-18.522m-17.836,0c0-8.918,1.029-12.348,4.8-12.348,3.43,0,4.8,3.087,4.8,12.348s-1.372,12.348-4.8,12.348c-3.773,0-4.8-3.087-4.8-12.348M168.411.686V37.043h6.174V10.633L185.56,36.7h7.2V.686h-6.174V23.324L177.328.686h-8.918Zm56.251,0V37.043h7.889V23.324h2.744c3.773,0,5.488-.343,7.2-1.029a6.9,6.9,0,0,0,3.773-3.087,13.828,13.828,0,0,0,2.058-7.546,11.956,11.956,0,0,0-3.087-8.575,9.826,9.826,0,0,0-7.2-2.744H224.662Zm8.232,5.831h2.4c2.4,0,3.43.343,4.459,1.715a5.641,5.641,0,0,1,.686,3.43c0,4.116-1.372,5.488-5.145,5.488h-2.4ZM258.618.686V37.043h7.889V22.638h4.116l4.8,14.406H284l-6.517-15.778c2.058-1.029,2.744-1.715,3.43-3.087A11.844,11.844,0,0,0,282.628,12c0-5.145-2.4-8.918-6.174-10.29-1.715-.686-2.4-.686-6.174-.686H258.618Zm7.889,5.831h3.087c3.43,0,5.145,1.715,5.145,4.8,0,3.43-1.715,5.145-4.8,5.145h-3.43Z" transform="translate(-1469 2481)"/></svg>